<svg xmlns="http://www.w3.org/2000/svg" width="163.991" height="163.991" viewBox="0 0 163.991 163.991">
  <g id="agile-scrum" transform="translate(-319 -1091)">
    <path id="Path_112" data-name="Path 112" d="M19.523,0H144.469a19.523,19.523,0,0,1,19.523,19.523V144.469a19.523,19.523,0,0,1-19.523,19.523H19.523A19.523,19.523,0,0,1,0,144.469V19.523A19.523,19.523,0,0,1,19.523,0Z" transform="translate(319 1091)" fill="#868e96"/>
    <g id="Group_44" data-name="Group 44" transform="translate(-0.4 804.203)">
      <path id="Path_44" data-name="Path 44" d="M1066.4,496.034h62.058s17.454-.554,22.44-17.592c.277-.138,3.324-8.727-1.524-19.809,0-.139-6.649-13.991-25.073-13.575a24.776,24.776,0,0,0-18.7,10.8c-.139-.139-4.71,6.649-4.572,15.376l6.372-.831-10.8,20.64L1080.806,474.7l5.264-.97s0-8.727,1.247-12.051c-.138-.138-25.765-4.71-17.592-31.583,0-.277,8.589-21.748,33.661-9.558,0,.277,2.217-2.493,2.217-2.493l3.047,12.051h-12.744l2.355-2.909s-11.359-7.757-19.947,3.879a15.028,15.028,0,0,0,.554,16.623,14.421,14.421,0,0,0,10.8,5.956c-.138-.277,6.649-14.683,21.748-20.086.138,0,24.934-11.774,46.682,12.328-.277,0,10.666,11.774,8.034,32.553.277-.277-2.078,10.112-8.034,17.592h19.393v-6.372l18.839,14.129-18.839,13.575v-6.511H1066.4Z" transform="translate(-727 -99)" fill="#fff"/>
    </g>
  </g>
</svg>
