<svg xmlns="http://www.w3.org/2000/svg" width="163.991" height="163.991" viewBox="0 0 163.991 163.991">
  <g id="graphic-design" transform="translate(-67 -1091)">
    <path id="Path_111" data-name="Path 111" d="M19.523,0H144.469a19.523,19.523,0,0,1,19.523,19.523V144.469a19.523,19.523,0,0,1-19.523,19.523H19.523A19.523,19.523,0,0,1,0,144.469V19.523A19.523,19.523,0,0,1,19.523,0Z" transform="translate(67 1091)" fill="#868e96"/>
    <g id="Group_6" data-name="Group 6" transform="translate(190.172 1122.515)">
      <path id="Path_11" data-name="Path 11" d="M445.852,41.434a8.626,8.626,0,0,1-11.557,11.558,8.626,8.626,0,1,0,11.557-11.558Z" transform="translate(-434.294 -41.434)" fill="#868e96"/>
    </g>
    <g id="Group_7" data-name="Group 7" transform="translate(91.639 1122.515)">
      <path id="Path_12" data-name="Path 12" d="M22.888,41.434A8.626,8.626,0,0,1,11.33,52.992,8.626,8.626,0,1,0,22.888,41.434Z" transform="translate(-11.33 -41.434)" fill="#868e96"/>
    </g>
    <path id="Path_115" data-name="Path 115" d="M0,54.91,13.552,5.14,41.591,0,57.246,12.851,55.61,40.89,4.206,59.115l21.73-21.73s13.085,1.869,12.384-9.814c0-.234-.7-8.879-10.982-7.711,0,0-9.113,2.57-6.075,11.683C21.5,32.011,0,54.91,0,54.91Z" transform="translate(188.973 1172.305) rotate(137)" fill="#fff"/>
    <path id="Path_116" data-name="Path 116" d="M14.79-.973,0,21.263,19.627,39.955,40.89,23.366l-5.337-4.977L20.616,31.765l-10-9.323,13.619-14.6Z" transform="translate(175.285 1223.408) rotate(137)" fill="#fff"/>
    <g id="Group_7-2" data-name="Group 7" transform="translate(91.639 1119.515)">
      <path id="Path_12-2" data-name="Path 12" d="M22.888,41.434A8.626,8.626,0,0,1,11.33,52.992,8.626,8.626,0,1,0,22.888,41.434Z" transform="translate(-11.33 -41.434)" fill="#868e96"/>
    </g>
    <path id="Path_17" data-name="Path 17" d="M33.963,42.218a1.745,1.745,0,0,0,0-3.489H20.592a10.371,10.371,0,1,0,0,3.489ZM10.371,47.356a6.882,6.882,0,1,1,6.882-6.882A6.889,6.889,0,0,1,10.371,47.356Z" transform="translate(89 1086.772)" fill="#fff"/>
    <path id="Subtraction_14" data-name="Subtraction 14" d="M105.312,174.617a10.386,10.386,0,0,1-10.221-8.627h-27.8v4.182a5.294,5.294,0,0,1-2.013,4.163l-1.5-3.851a1.835,1.835,0,0,0,.027-.311V158.319a1.831,1.831,0,0,0-1.829-1.83H50.118a1.832,1.832,0,0,0-1.83,1.83v11.86l-1.827,3.854a5.268,5.268,0,0,1-1.663-3.859v-4.182H38.745a1.745,1.745,0,1,1,0-3.489H44.8v-4.183A5.325,5.325,0,0,1,50.117,153H61.972a5.325,5.325,0,0,1,5.319,5.319V162.5h27.8A10.374,10.374,0,0,1,110,154.994a1.745,1.745,0,0,1-.791,3.3,1.726,1.726,0,0,1-.789-.19,6.808,6.808,0,0,0-3.11-.741,6.882,6.882,0,1,0,6.881,6.882,7,7,0,0,0-.065-.953,1.744,1.744,0,0,1,1.49-1.967,1.74,1.74,0,0,1,1.966,1.49,10.5,10.5,0,0,1,.1,1.43A10.382,10.382,0,0,1,105.312,174.617Z" transform="translate(92.592 963)" fill="#fff"/>
    <circle id="Ellipse_3" data-name="Ellipse 3" cx="7.5" cy="7.5" r="7.5" transform="translate(92 1120)" fill="#fff"/>
    <circle id="Ellipse_4" data-name="Ellipse 4" cx="9" cy="9" r="9" transform="translate(190 1117)" fill="#fff"/>
  </g>
</svg>
