<svg xmlns="http://www.w3.org/2000/svg" width="163.991" height="163.991" viewBox="0 0 163.991 163.991">
  <g id="logo-design" transform="translate(-825 -1091)">
    <path id="Path_114" data-name="Path 114" d="M19.523,0H144.469a19.523,19.523,0,0,1,19.523,19.523V144.469a19.523,19.523,0,0,1-19.523,19.523H19.523A19.523,19.523,0,0,1,0,144.469V19.523A19.523,19.523,0,0,1,19.523,0Z" transform="translate(825 1091)" fill="#868e96"/>
    <path id="Path_97" data-name="Path 97" d="M1050,284.25,1035,307l21,20,22.75-17.75-5.75-7-17,15-12.75-11.5L1056,288.5Z" transform="translate(1928.75 1515.75) rotate(180)" fill="#fff"/>
    <g id="Path_105" data-name="Path 105" transform="translate(860 1116)" fill="none">
      <path d="M4,0H18a4,4,0,0,1,4,4V18a4,4,0,0,1-4,4H4a4,4,0,0,1-4-4V4A4,4,0,0,1,4,0Z" stroke="none"/>
      <path d="M 4 4 L 4.000005722045898 4 C 4.000003814697266 4.000001907348633 4.000001907348633 4.000003814697266 4 4 L 4 17.9999942779541 C 4.000001907348633 17.99999618530273 4.000003814697266 17.99999809265137 4 18 L 17.9999942779541 18 C 17.99999618530273 17.99999809265137 17.99999809265137 17.99999618530273 18 18 L 18 4.000005722045898 C 17.99999809265137 4.000003814697266 17.99999618530273 4.000001907348633 18 4 L 4 4 M 4 0 L 18 0 C 20.20914077758789 0 22 1.790859222412109 22 4 L 22 18 C 22 20.20914077758789 20.20914077758789 22 18 22 L 4 22 C 1.790859222412109 22 0 20.20914077758789 0 18 L 0 4 C 0 1.790859222412109 1.790859222412109 0 4 0 Z" stroke="none" fill="#fff"/>
    </g>
    <g id="Path_104" data-name="Path 104" transform="translate(936 1114)" fill="none">
      <path d="M13.5,0A13.5,13.5,0,1,1,0,13.5,13.5,13.5,0,0,1,13.5,0Z" stroke="none"/>
      <path d="M 13.5 5 C 8.813079833984375 5 5 8.813079833984375 5 13.5 C 5 18.18692016601563 8.813079833984375 22 13.5 22 C 18.18692016601563 22 22 18.18692016601563 22 13.5 C 22 8.813079833984375 18.18692016601563 5 13.5 5 M 13.5 0 C 20.95584106445313 0 27 6.044160842895508 27 13.5 C 27 20.95584106445313 20.95584106445313 27 13.5 27 C 6.044160842895508 27 0 20.95584106445313 0 13.5 C 0 6.044160842895508 6.044160842895508 0 13.5 0 Z" stroke="none" fill="#fff"/>
    </g>
    <path id="Path_98" data-name="Path 98" d="M877.5,324h48" transform="translate(3 803)" fill="none" stroke="#fff" stroke-linecap="round" stroke-width="5"/>
    <g id="Path_99" data-name="Path 99" transform="translate(948 1155)" fill="#fff">
      <path d="M 5.5 9.5 C 3.294389963150024 9.5 1.5 7.705609798431396 1.5 5.5 C 1.5 3.294389963150024 3.294389963150024 1.5 5.5 1.5 C 7.705609798431396 1.5 9.5 3.294389963150024 9.5 5.5 C 9.5 7.705609798431396 7.705609798431396 9.5 5.5 9.5 Z" stroke="none"/>
      <path d="M 5.5 3 C 4.121500015258789 3 3 4.121500015258789 3 5.5 C 3 6.878499984741211 4.121500015258789 8 5.5 8 C 6.878499984741211 8 8 6.878499984741211 8 5.5 C 8 4.121500015258789 6.878499984741211 3 5.5 3 M 5.5 0 C 8.537569999694824 0 11 2.462430000305176 11 5.5 C 11 8.537569999694824 8.537569999694824 11 5.5 11 C 2.462430000305176 11 0 8.537569999694824 0 5.5 C 0 2.462430000305176 2.462430000305176 0 5.5 0 Z" stroke="none" fill="#fff"/>
    </g>
    <path id="Path_101" data-name="Path 101" d="M2,0A2,2,0,0,1,4,2V8A2,2,0,0,1,0,8V2A2,2,0,0,1,2,0Z" transform="translate(946 1175)" fill="#fff"/>
    <path id="Path_103" data-name="Path 103" d="M2,0A2,2,0,0,1,4,2V8A2,2,0,0,1,0,8V2A2,2,0,0,1,2,0Z" transform="translate(946 1189)" fill="#fff"/>
    <path id="Path_100" data-name="Path 100" d="M2,0A2,2,0,0,1,4,2V8A2,2,0,0,1,0,8V2A2,2,0,0,1,2,0Z" transform="translate(960 1185) rotate(90)" fill="#fff"/>
    <path id="Path_102" data-name="Path 102" d="M2,0A2,2,0,0,1,4,2V8A2,2,0,0,1,0,8V2A2,2,0,0,1,2,0Z" transform="translate(946 1185) rotate(90)" fill="#fff"/>
    <path id="Path_106" data-name="Path 106" d="M2,0A2,2,0,1,1,0,2,2,2,0,0,1,2,0Z" transform="translate(917 1207)" fill="#fff"/>
    <path id="Path_107" data-name="Path 107" d="M987,373l14.5-53.25,30-5.5L1048.25,328l-1.75,30-55,19.5,23.25-23.25s14,2,13.25-10.5c0-.25-.75-9.5-11.75-8.25,0,0-9.75,2.75-6.5,12.5C1010,348.5,987,373,987,373Z" transform="translate(1928.75 1515.75) rotate(180)" fill="#fff"/>
    <circle id="Ellipse_5" data-name="Ellipse 5" cx="9.5" cy="9.5" r="9.5" transform="translate(940 1118)" fill="#fff"/>
    <rect id="Rectangle_15" data-name="Rectangle 15" width="17" height="16" transform="translate(862 1119)" fill="#fff"/>
  </g>
</svg>
