<svg xmlns="http://www.w3.org/2000/svg" width="163.991" height="163.991" viewBox="0 0 163.991 163.991">
  <g id="photoshop" transform="translate(-37 -605)">
    <g id="photoshop-2" data-name="photoshop" transform="translate(37 605)">
      <path id="Path_45" data-name="Path 45" d="M19.523,0H144.469a19.523,19.523,0,0,1,19.523,19.523V144.469a19.523,19.523,0,0,1-19.523,19.523H19.523A19.523,19.523,0,0,1,0,144.469V19.523A19.523,19.523,0,0,1,19.523,0Z" fill="#868e96"/>
      <path id="Path_46" data-name="Path 46" d="M28.518-51.975v29.354H12.332V-107.83H37.688q27.16,0,27.16,27.155,0,12.835-7.792,20.767T36.235-51.975Zm0-41.119v26.561h6.364q12.929,0,12.929-13.429,0-13.132-12.929-13.132ZM70.461-24.225V-39.437a31.41,31.41,0,0,0,7.792,4.159,22.143,22.143,0,0,0,7.341,1.367,13.6,13.6,0,0,0,6.64-1.367,4.47,4.47,0,0,0,2.43-4.159,4.2,4.2,0,0,0-1.1-2.971,10.166,10.166,0,0,0-2.831-2.08,29,29,0,0,0-3.783-1.6,41.184,41.184,0,0,1-3.959-1.6A35.485,35.485,0,0,1,77.6-50.638a16.33,16.33,0,0,1-3.909-3.654,15.12,15.12,0,0,1-2.405-4.813,22.5,22.5,0,0,1-.827-6.477,19.143,19.143,0,0,1,1.879-8.794,17.134,17.134,0,0,1,5.011-6.031,21.043,21.043,0,0,1,7.166-3.446,31.782,31.782,0,0,1,8.394-1.1,39.433,39.433,0,0,1,6.915.624,44.785,44.785,0,0,1,6.915,1.812v14.5a22.962,22.962,0,0,0-6.439-3.12,23.171,23.171,0,0,0-6.74-1.04,12.673,12.673,0,0,0-2.931.327,8.651,8.651,0,0,0-2.43.951,4.727,4.727,0,0,0-1.654,1.6,4.176,4.176,0,0,0-.6,2.228,4.581,4.581,0,0,0,.9,2.852,8.081,8.081,0,0,0,2.355,2.05,21.315,21.315,0,0,0,3.232,1.545q1.779.683,3.533,1.4a42.373,42.373,0,0,1,5.713,2.852,18.593,18.593,0,0,1,4.385,3.625,14.581,14.581,0,0,1,2.806,4.872,20.207,20.207,0,0,1,.977,6.655,19.925,19.925,0,0,1-1.979,9.24,17.625,17.625,0,0,1-5.262,6.239,21.824,21.824,0,0,1-7.567,3.506,35.65,35.65,0,0,1-8.895,1.1A39.425,39.425,0,0,1,70.461-24.225Z" transform="translate(20.248 145.84)" fill="#fff"/>
    </g>
  </g>
</svg>
