<svg xmlns="http://www.w3.org/2000/svg" width="163.991" height="163.991" viewBox="0 0 163.991 163.991">
  <g id="responsive-design" transform="translate(-67 -809)">
    <path id="Path_110" data-name="Path 110" d="M19.523,0H144.469a19.523,19.523,0,0,1,19.523,19.523V144.469a19.523,19.523,0,0,1-19.523,19.523H19.523A19.523,19.523,0,0,1,0,144.469V19.523A19.523,19.523,0,0,1,19.523,0Z" transform="translate(67 809)" fill="#868e96"/>
    <g id="Group_40" data-name="Group 40" transform="translate(29.067 784.037)">
      <g id="Group_1" data-name="Group 1" transform="translate(55 63)">
        <path id="Subtraction_1" data-name="Subtraction 1" d="M23.148,48H5.852a5.57,5.57,0,0,1-2.278-.484A5.826,5.826,0,0,1,1.714,46.2,6.16,6.16,0,0,1,.46,44.241a6.389,6.389,0,0,1-.46-2.4V6.154a6.389,6.389,0,0,1,.46-2.4A6.16,6.16,0,0,1,1.714,1.8,5.826,5.826,0,0,1,3.574.484,5.57,5.57,0,0,1,5.852,0h17.3a5.57,5.57,0,0,1,2.278.484A5.826,5.826,0,0,1,27.286,1.8,6.16,6.16,0,0,1,28.54,3.759a6.389,6.389,0,0,1,.46,2.4V41.846a6.389,6.389,0,0,1-.46,2.4A6.16,6.16,0,0,1,27.286,46.2a5.826,5.826,0,0,1-1.86,1.319A5.57,5.57,0,0,1,23.148,48ZM4.031,8.752V39.385H24.969V8.752Z" transform="translate(100.933 38.963)" fill="#fff"/>
        <path id="Subtraction_3" data-name="Subtraction 3" d="M37.637,73H6.125a6.123,6.123,0,0,1-4.331-1.782A6.045,6.045,0,0,1,0,66.916V6.083a6.04,6.04,0,0,1,1.795-4.3A6.123,6.123,0,0,1,6.125,0H45.874a6.123,6.123,0,0,1,4.332,1.782A6.04,6.04,0,0,1,52,6.083V21H47.644V8.652H4.22V55.966H34.757V68.133a5.171,5.171,0,0,0,.3,1.735A5.918,5.918,0,0,0,37.634,73ZM23.874,60.157a2.231,2.231,0,0,0,0,4.461h4.659a2.231,2.231,0,1,0,0-4.461Z" transform="translate(60.933 12.963)" fill="#fff"/>
        <rect id="Rectangle_4" data-name="Rectangle 4" width="5" height="10" rx="2.5" transform="translate(67.933 28.963)" fill="#fff"/>
        <path id="Path_4" data-name="Path 4" d="M2.035,0h.271A2.035,2.035,0,0,1,4.341,2.035v13.7a2.035,2.035,0,0,1-2.035,2.035H2.035A2.035,2.035,0,0,1,0,15.735V2.035A2.035,2.035,0,0,1,2.035,0Z" transform="translate(69.178 42.999)" fill="#fff"/>
        <rect id="Rectangle_5" data-name="Rectangle 5" width="4" height="9" rx="2" transform="translate(8.933 17.963)" fill="#fff"/>
        <path id="Path_5" data-name="Path 5" d="M2.035,0h.271A2.035,2.035,0,0,1,4.341,2.035v13.7a2.035,2.035,0,0,1-2.035,2.035H2.035A2.035,2.035,0,0,1,0,15.735V2.035A2.035,2.035,0,0,1,2.035,0Z" transform="translate(8.681 30.113)" fill="#fff"/>
        <path id="Subtraction_6" data-name="Subtraction 6" d="M56.161,73H6.089A6.091,6.091,0,0,1,.479,69.3,5.994,5.994,0,0,1,0,66.939V6.061A5.994,5.994,0,0,1,.479,3.7,6.089,6.089,0,0,1,6.089,0H88.91a6.094,6.094,0,0,1,5.611,3.7A6.009,6.009,0,0,1,95,6.061V8.62H90.67V7A2.7,2.7,0,0,0,87.962,4.31H6.9A2.7,2.7,0,0,0,4.195,7V51.585H56.161V73ZM45.189,60.071a2.155,2.155,0,0,0,0,4.309h4.622a2.155,2.155,0,1,0,0-4.309Z" transform="translate(-0.067 -0.037)" fill="#fff"/>
        <path id="Path_7" data-name="Path 7" d="M598.919,764.41s-.136,4.25-7.777,4.205c-.028-.028-2.78.026-2.854,2.026-.025,1.457,1.037,2.359,2.854,2.359-.045-.091,31.7,0,31.7,0s-2.894-1.4-2.668-8.591C620.124,764.32,598.919,764.41,598.919,764.41Z" transform="translate(-563.968 -686.596)" fill="#fff"/>
      </g>
    </g>
  </g>
</svg>
