<svg xmlns="http://www.w3.org/2000/svg" width="163.991" height="163.991" viewBox="0 0 163.991 163.991">
  <g id="typographic" transform="translate(-568 -1091)">
    <path id="Path_113" data-name="Path 113" d="M19.523,0H144.469a19.523,19.523,0,0,1,19.523,19.523V144.469a19.523,19.523,0,0,1-19.523,19.523H19.523A19.523,19.523,0,0,1,0,144.469V19.523A19.523,19.523,0,0,1,19.523,0Z" transform="translate(568 1091)" fill="#868e96"/>
    <g id="Group_55" data-name="Group 55" transform="translate(3.608 1.254)">
      <path id="Path_52" data-name="Path 52" d="M0,50.962,12.578,4.771,38.6,0l14.53,11.927L51.613,37.951,3.9,54.866,24.071,34.7s12.144,1.735,11.494-9.108c0-.217-.651-8.241-10.192-7.156,0,0-8.458,2.385-5.638,10.843C19.951,29.71,0,50.962,0,50.962Z" transform="translate(638.574 1167.005) rotate(-13)" fill="#fff"/>
      <path id="Path_53" data-name="Path 53" d="M13.012,0,0,19.734,18.216,37.083l19.734-15.4-4.988-6.072L18.216,28.626,7.156,18.65,18.216,3.687Z" transform="translate(673.29 1132.283) rotate(-13)" fill="#fff"/>
      <path id="Path_54" data-name="Path 54" d="M-47.77-1.656l3.414-1.971A5.619,5.619,0,0,0-43.34-4.39a3.927,3.927,0,0,0,.78-.954l18.514-32.492,5-7.694h7.123l6.5,40.345a3.612,3.612,0,0,0,.324.986,1.538,1.538,0,0,0,.648.7L-.852-1.656-1.471,1.3H-20.661l.618-2.957L-15.1-4.04l-1.589-9.728H-31.611l-5.18,9.506L-32.2-1.656-32.818,1.3H-48.388Zm30.2-17.549L-19.278-29.41l-.353-4.61h-.589l-8.271,14.815Z" transform="translate(627.78 1217.859)" fill="#fff"/>
      <path id="Path_55" data-name="Path 55" d="M981.429,343c.253,0,0,3.794,0,3.794s-6.593,4.79-8.822,12.142c0,0-2.466,7.589,1.47,11.952.949.806,3.178,1.454,4.316-1.2,0-.126-3.5,10.946-11.256,5.439-.127-.253-6.881-5.791-.506-21.5C966.884,353.5,971.69,343.126,981.429,343Z" transform="translate(-335.341 843.391)" fill="#fff"/>
    </g>
  </g>
</svg>
