<svg xmlns="http://www.w3.org/2000/svg" width="163.991" height="163.991" viewBox="0 0 163.991 163.991">
  <g id="ux-design" transform="translate(-825 -809)">
    <path id="Path_51" data-name="Path 51" d="M19.523,0H144.469a19.523,19.523,0,0,1,19.523,19.523V144.469a19.523,19.523,0,0,1-19.523,19.523H19.523A19.523,19.523,0,0,1,0,144.469V19.523A19.523,19.523,0,0,1,19.523,0Z" transform="translate(825 809)" fill="#868e96"/>
    <g id="Group_36" data-name="Group 36" transform="translate(-592 662.837)">
      <path id="Subtraction_13" data-name="Subtraction 13" d="M110.436,90H7.565a7.584,7.584,0,0,1-5.349-2.188A7.465,7.465,0,0,1,.594,85.436,7.355,7.355,0,0,1,0,82.527V7.473A7.348,7.348,0,0,1,.594,4.564,7.445,7.445,0,0,1,2.216,2.189,7.579,7.579,0,0,1,7.565,0H110.436a7.584,7.584,0,0,1,5.349,2.189,7.456,7.456,0,0,1,1.621,2.375A7.348,7.348,0,0,1,118,7.473V82.527a7.355,7.355,0,0,1-.594,2.909,7.541,7.541,0,0,1-4.026,3.976A7.593,7.593,0,0,1,110.436,90ZM56.11,74.058a2.657,2.657,0,0,0,0,5.314H61.89a2.657,2.657,0,0,0,0-5.314ZM8.573,5.314A3.345,3.345,0,0,0,5.211,8.635V63.6H109.259a3.346,3.346,0,0,0,3.362-3.321V8.635a3.346,3.346,0,0,0-3.362-3.321Z" transform="translate(1439 179)" fill="#fff"/>
      <path id="Union_2" data-name="Union 2" d="M42.517,10.594c.055.034.085.048.085.048s-5.729-.016-12.8-.03c-7.072.014-12.8.03-12.8.03s.03-.015.085-.048c-7.431-.005-13.588,0-13.565.048C1.279,10.642-.03,9.53,0,7.733.092,5.267,3.486,5.2,3.52,5.234c9.422.056,9.59-5.185,9.59-5.185S16.662.034,21.152.021C22.67,0,26.019,0,29.8,0s7.131,0,8.649.019c4.49.014,8.042.029,8.042.029s.167,5.241,9.589,5.185c.034-.034,3.428.032,3.519,2.5.031,1.8-1.278,2.91-3.519,2.91C56.1,10.6,49.948,10.589,42.517,10.594Z" transform="translate(1468.987 274.9)" fill="#fff"/>
    </g>
    <path id="Path_82" data-name="Path 82" d="M153.263,78.344H92.1V9.2a1.615,1.615,0,0,1,1.521-1.7h58.12a1.615,1.615,0,0,1,1.521,1.7Z" transform="translate(783.399 827.043)" fill="#868e96"/>
    <path id="Path_95" data-name="Path 95" d="M147.781,82.314H92.1V9.291A1.628,1.628,0,0,1,93.485,7.5H146.4a1.627,1.627,0,0,1,1.384,1.791Z" transform="translate(786.399 824.5)" fill="#fff" stroke="#fff" stroke-width="2"/>
    <g id="Group_30" data-name="Group 30" transform="translate(885.509 842.861)">
      <path id="Path_84" data-name="Path 84" d="M145.852,61.093a3.261,3.261,0,0,0-3.261,3.261V77.13c0,.467,0,1.335-1.709,2.2a3.462,3.462,0,0,1-1.593.354h-.006a3.022,3.022,0,0,1-1.675-.467c-1.3-.833-1.41-1.43-1.41-2.069V64.354a3.261,3.261,0,1,0-6.522,0v12.79a8.65,8.65,0,0,0,4.421,7.565,9.485,9.485,0,0,0,5.178,1.493h.015a9.967,9.967,0,0,0,4.527-1.051c3.416-1.72,5.3-4.569,5.3-8.02V64.354A3.262,3.262,0,0,0,145.852,61.093Z" transform="translate(-129.676 -61.093)" fill="#868e96"/>
    </g>
    <g id="Group_31" data-name="Group 31" transform="translate(907.123 842.73)">
      <path id="Path_85" data-name="Path 85" d="M287.861,80.528,281.7,72.41l5.124-6.8a3.261,3.261,0,0,0-5.207-3.927L277.6,67.011l-4.046-5.331a3.261,3.261,0,0,0-5.2,3.943l5.161,6.8-5.87,7.785a3.261,3.261,0,1,0,5.208,3.927l4.76-6.313,5.046,6.649a3.261,3.261,0,0,0,5.2-3.943Z" transform="translate(-266.994 -60.39)" fill="#868e96"/>
    </g>
    <g id="Group_35" data-name="Group 35" transform="translate(890.366 842.729)">
      <g id="Group_33" data-name="Group 33" transform="translate(3 0.131)">
        <path id="Path_86" data-name="Path 86" d="M183.38,64.352V77.128c0,3.453-1.88,6.3-5.3,8.02a9.948,9.948,0,0,1-4.526,1.051h-.015a10.247,10.247,0,0,1-1.74-.149,9.713,9.713,0,0,0,2.734-.9c3.418-1.719,5.3-4.567,5.3-8.02V64.352a3.253,3.253,0,0,0-1.488-2.736,3.261,3.261,0,0,1,5.034,2.736Z" transform="translate(-171.802 -61.091)" fill="#78808a"/>
      </g>
      <g id="Group_34" data-name="Group 34" transform="translate(28.198)">
        <path id="Path_87" data-name="Path 87" d="M337.134,85.095a3.253,3.253,0,0,1-3.744.138c.067-.043.132-.09.2-.138a3.261,3.261,0,0,0,.627-4.569l-5.652-7.447a1.113,1.113,0,0,1,0-1.343l4.617-6.124a3.262,3.262,0,0,0-.64-4.567c-.063-.047-.127-.091-.192-.132a3.261,3.261,0,0,1,4.379,4.7l-5.124,6.8,6.161,8.117a3.261,3.261,0,0,1-.627,4.569Z" transform="translate(-328.336 -60.387)" fill="#78808a"/>
      </g>
    </g>
    <path id="Path_92" data-name="Path 92" d="M166.231,226.776H123.444c-.7,0-1.27.9-1.27,2s.568,2,1.27,2h42.787c.7,0,1.27-.9,1.27-2S166.932,226.776,166.231,226.776Z" transform="translate(761.826 649.99)" fill="#868e96"/>
    <path id="Path_93" data-name="Path 93" d="M166.231,257.219H123.444c-.7,0-1.27.9-1.27,2s.568,2,1.27,2h42.787c.7,0,1.27-.9,1.27-2S166.932,257.219,166.231,257.219Z" transform="translate(761.826 627.225)" fill="#868e96"/>
    <path id="Path_94" data-name="Path 94" d="M166.231,287.662H123.444c-.7,0-1.27.9-1.27,2s.568,2,1.27,2h42.787c.7,0,1.27-.9,1.27-2S166.932,287.662,166.231,287.662Z" transform="translate(761.826 604.461)" fill="#868e96"/>
  </g>
</svg>
