<svg xmlns="http://www.w3.org/2000/svg" width="163.991" height="163.991" viewBox="0 0 163.991 163.991">
  <g id="web-design" transform="translate(-319 -809)">
    <path id="Path_109" data-name="Path 109" d="M19.523,0H144.469a19.523,19.523,0,0,1,19.523,19.523V144.469a19.523,19.523,0,0,1-19.523,19.523H19.523A19.523,19.523,0,0,1,0,144.469V19.523A19.523,19.523,0,0,1,19.523,0Z" transform="translate(319 809)" fill="#868e96"/>
    <g id="Group_37" data-name="Group 37" transform="translate(16 789.966)">
      <g id="Group_16" data-name="Group 16" transform="translate(-595 -13)">
        <path id="Path_56" data-name="Path 56" d="M990.875,94.688l-2.562,10.563,10.625-2.687Z" fill="#fff"/>
        <path id="Path_57" data-name="Path 57" d="M1022.313,65.25,994.688,92.813,996,94.188l27.563-27.75,5.938,6.25-29.125,28.75L992,92.813l29.063-28.875Z" fill="#fff"/>
        <path id="Path_58" data-name="Path 58" d="M1022.375,62.563,1031,71.438l3.813-4a3.82,3.82,0,0,0-.875-4.375c-2.062-2.187-3.469-3.687-3.469-3.687s-2.406-2-4.531,0S1022.375,62.563,1022.375,62.563Z" fill="#fff"/>
        <path id="Path_59" data-name="Path 59" d="M1031.031,98.875c.688,1.25.75,5.594,5.438,6.156,0,0,6.656.531-1,.844,0-.031-4.5,1.031-11.812-1.5-.062,0-4.406-1.344-1.781-4.75-.031-.062,3.5-5.187,7.469-2.594A5.238,5.238,0,0,1,1031.031,98.875Z" fill="#fff"/>
        <path id="Path_60" data-name="Path 60" d="M1018.313,86.531l5.813,8.156s.344.469-.625,1.156c.031-.031-2.25,1.906-2.25,1.906s-.406.75-1.656-.875c-.031,0-5.594-6.312-5.594-6.312Z" fill="#fff"/>
        <path id="Subtraction_7" data-name="Subtraction 7" d="M14.808,23.091h0l-12.78-14A7.078,7.078,0,0,1,0,4.6,4.683,4.683,0,0,1,1.714,1.185a.34.34,0,0,0,.029-.026A4.275,4.275,0,0,1,4.663,0c2.218,0,4.569,1.608,6.988,4.779.013.061,8.423,11.932,8.781,12.437l-5.624,5.874ZM5.622.823a.843.843,0,0,0-.814.518A.426.426,0,0,0,4.9,1.4,8.352,8.352,0,0,1,8.089,4.716c.025,0,1.013-.859,1.531-1.312C9.6,3.379,7.075.823,5.622.823Z" transform="translate(988.567 56.034)" fill="#fff"/>
      </g>
      <rect id="Rectangle_9" data-name="Rectangle 9" width="5" height="11" rx="2.5" transform="translate(337 73)" fill="#fff"/>
      <path id="Path_63" data-name="Path 63" d="M2.509,0h.335A2.509,2.509,0,0,1,5.352,2.509V19.4a2.509,2.509,0,0,1-2.509,2.509H2.509A2.509,2.509,0,0,1,0,19.4V2.509A2.509,2.509,0,0,1,2.509,0Z" transform="translate(336.704 88.131)" fill="#fff"/>
      <path id="Subtraction_10" data-name="Subtraction 10" d="M110.436,90H7.565a7.584,7.584,0,0,1-5.349-2.188A7.458,7.458,0,0,1,.594,85.436,7.355,7.355,0,0,1,0,82.527V7.473A7.348,7.348,0,0,1,.594,4.564,7.438,7.438,0,0,1,2.216,2.189,7.579,7.579,0,0,1,7.565,0H62.758V5.314H8.573A3.345,3.345,0,0,0,5.211,8.635V63.6H109.259a3.346,3.346,0,0,0,3.362-3.321V49.627H118v32.9a7.355,7.355,0,0,1-.594,2.909,7.476,7.476,0,0,1-1.621,2.375A7.588,7.588,0,0,1,110.436,90ZM56.11,74.058a2.657,2.657,0,0,0,0,5.314H61.89a2.657,2.657,0,0,0,0-5.314Z" transform="translate(326 51)" fill="#fff"/>
      <path id="Union_1" data-name="Union 1" d="M42.517,10.594c.055.034.085.048.085.048s-5.729-.016-12.8-.03c-7.072.014-12.8.03-12.8.03s.03-.015.085-.048c-7.431-.005-13.588,0-13.565.048C1.279,10.642-.03,9.53,0,7.733.092,5.267,3.486,5.2,3.52,5.234c9.422.056,9.59-5.185,9.59-5.185S16.662.034,21.152.021C22.67,0,26.019,0,29.8,0s7.131,0,8.649.019c4.49.014,8.042.029,8.042.029s.167,5.241,9.589,5.185c.034-.034,3.428.032,3.519,2.5.031,1.8-1.278,2.91-3.519,2.91C56.1,10.6,49.948,10.589,42.517,10.594Z" transform="translate(355.987 146.9)" fill="#fff"/>
    </g>
  </g>
</svg>
