<svg xmlns="http://www.w3.org/2000/svg" width="163.991" height="163.991" viewBox="0 0 163.991 163.991">
  <g id="web-development" transform="translate(-568 -809)">
    <path id="Path_108" data-name="Path 108" d="M19.523,0H144.469a19.523,19.523,0,0,1,19.523,19.523V144.469a19.523,19.523,0,0,1-19.523,19.523H19.523A19.523,19.523,0,0,1,0,144.469V19.523A19.523,19.523,0,0,1,19.523,0Z" transform="translate(568 809)" fill="#868e96"/>
    <g id="Group_38" data-name="Group 38" transform="translate(10 786)">
      <g id="Group_17" data-name="Group 17" transform="translate(-581 -13)">
        <path id="Subtraction_13" data-name="Subtraction 13" d="M110.436,90H7.565a7.584,7.584,0,0,1-5.349-2.188A7.465,7.465,0,0,1,.594,85.436,7.355,7.355,0,0,1,0,82.527V7.473A7.348,7.348,0,0,1,.594,4.564,7.445,7.445,0,0,1,2.216,2.189,7.579,7.579,0,0,1,7.565,0H110.436a7.584,7.584,0,0,1,5.349,2.189,7.456,7.456,0,0,1,1.621,2.375A7.348,7.348,0,0,1,118,7.473V82.527a7.355,7.355,0,0,1-.594,2.909,7.541,7.541,0,0,1-4.026,3.976A7.593,7.593,0,0,1,110.436,90ZM56.11,74.058a2.657,2.657,0,0,0,0,5.314H61.89a2.657,2.657,0,0,0,0-5.314ZM8.573,5.314A3.345,3.345,0,0,0,5.211,8.635V63.6H109.259a3.346,3.346,0,0,0,3.362-3.321V8.635a3.346,3.346,0,0,0-3.362-3.321Z" transform="translate(1162 64)" fill="#fff"/>
        <path id="Union_2" data-name="Union 2" d="M42.517,10.594c.055.034.085.048.085.048s-5.729-.016-12.8-.03c-7.072.014-12.8.03-12.8.03s.03-.015.085-.048c-7.431-.005-13.588,0-13.565.048C1.279,10.642-.03,9.53,0,7.733.092,5.267,3.486,5.2,3.52,5.234c9.422.056,9.59-5.185,9.59-5.185S16.662.034,21.152.021C22.67,0,26.019,0,29.8,0s7.131,0,8.649.019c4.49.014,8.042.029,8.042.029s.167,5.241,9.589,5.185c.034-.034,3.428.032,3.519,2.5.031,1.8-1.278,2.91-3.519,2.91C56.1,10.6,49.948,10.589,42.517,10.594Z" transform="translate(1191.987 159.9)" fill="#fff"/>
        <path id="Path_73" data-name="Path 73" d="M-36.914-20.313a1.9,1.9,0,0,1,.36-1.157,4.487,4.487,0,0,1,1.132-1L-18.45-33.943a1.079,1.079,0,0,1,.566-.154,1.047,1.047,0,0,1,.771.309,1.047,1.047,0,0,1,.309.771V-30.7q0,1.183-1.646,2.263l-13.578,9.206,13.578,9.206Q-16.8-8.947-16.8-7.764v2.314a1.047,1.047,0,0,1-.309.771,1.047,1.047,0,0,1-.771.309,1.079,1.079,0,0,1-.566-.154L-35.423-15.993a4.487,4.487,0,0,1-1.132-1,1.9,1.9,0,0,1-.36-1.157Zm41.969-19.8a2.312,2.312,0,0,1,2.263-1.543h1.7a1.088,1.088,0,0,1,.8.334,1.088,1.088,0,0,1,.334.8,1.263,1.263,0,0,1-.1.463L-7.341,1.545A2.255,2.255,0,0,1-9.6,3.088h-1.543a1.088,1.088,0,0,1-.8-.334,1.088,1.088,0,0,1-.334-.8,1.263,1.263,0,0,1,.1-.463ZM34.731-18.153A1.9,1.9,0,0,1,34.371-17a4.487,4.487,0,0,1-1.132,1L16.267-4.524a1.079,1.079,0,0,1-.566.154,1.047,1.047,0,0,1-.771-.309,1.047,1.047,0,0,1-.309-.771V-7.764q0-1.183,1.646-2.263l13.578-9.206L16.267-28.44q-1.646-1.08-1.646-2.263v-2.314a1.047,1.047,0,0,1,.309-.771A1.047,1.047,0,0,1,15.7-34.1a1.079,1.079,0,0,1,.566.154L33.24-22.474a4.487,4.487,0,0,1,1.132,1,1.9,1.9,0,0,1,.36,1.157Z" transform="translate(1222.092 118.682)" fill="#fff"/>
      </g>
    </g>
  </g>
</svg>
