<svg xmlns="http://www.w3.org/2000/svg" width="163.991" height="163.991" viewBox="0 0 163.991 163.991">
  <g id="xd" transform="translate(-315.338 -605)">
    <g id="xd-2" data-name="xd" transform="translate(315.338 605)">
      <path id="Path_47" data-name="Path 47" d="M19.523,0H144.469a19.523,19.523,0,0,1,19.523,19.523V144.469a19.523,19.523,0,0,1-19.523,19.523H19.523A19.523,19.523,0,0,1,0,144.469V19.523A19.523,19.523,0,0,1,19.523,0Z" fill="#868e96"/>
      <path id="Path_49" data-name="Path 49" d="M60.1,9.977H42.868L31.756-17.039a28.863,28.863,0,0,1-1.3-5.554h-.18a51,51,0,0,1-1.485,5.785L17.629,9.977H.308L20.868-31.5,2.062-72.981H19.743l9.223,24.876a51.567,51.567,0,0,1,1.935,7h.18q.54-2.43,2.025-7.231L43.363-72.981h16.2L40.214-31.849Zm51.379,0H97.261V1.82h-.18q-4.859,9.6-14.262,9.6-8.638,0-13.9-7.839t-5.264-21.9q0-14.694,5.8-23.545t15.207-8.851q8.908,0,12.417,8.215h.18V-77.725h14.217ZM97.531-18.833v-4.454a16.642,16.642,0,0,0-2.609-9.6,7.912,7.912,0,0,0-6.793-3.818q-4.724,0-7.378,4.773T78.1-18.833q0,7.81,2.564,12.033a7.939,7.939,0,0,0,7.108,4.223q4.319,0,7.041-4.454T97.531-18.833Z" transform="translate(26.842 115.734)" fill="#fff"/>
    </g>
  </g>
</svg>
